<svg width="2566" height="654" viewBox="0 0 2566 654" fill="none" xmlns="http://www.w3.org/2000/svg">
<g filter="url(#filter0_d_2017_228)">
<path d="M29.4 152.2C29.4 139 29.1 126.1 28.5 113.5C28.1 100.7 27.6 87.7 27 74.5C34.6 74.9 42.1 75.3 49.5 75.7C57.1 75.9 64.7 76 72.3 76C79.9 76 87.4 75.8 94.8 75.4C102.4 74.8 110 74.5 117.6 74.5C135.2 74.5 150.2 76.8 162.6 81.4C175.2 86 185.5 92.6 193.5 101.2C201.5 109.6 207.3 120 210.9 132.4C214.7 144.6 216.6 158.4 216.6 173.8C216.6 193.8 213.1 210.7 206.1 224.5C199.3 238.1 190.5 249.1 179.7 257.5C169.1 265.9 157.3 271.9 144.3 275.5C131.5 278.9 119.2 280.6 107.4 280.6C100.6 280.6 93.9 280.5 87.3 280.3C80.7 280.1 74 280 67.2 280C60.4 280 53.7 280 47.1 280C40.5 280 33.8 280.2 27 280.6C27.6 268.2 28.1 255.6 28.5 242.8C29.1 230 29.4 217 29.4 203.8V152.2ZM54 203.8C54 225.4 54.6 246.6 55.8 267.4C60 268.4 65.7 269.2 72.9 269.8C80.1 270.2 87.5 270.4 95.1 270.4C106.1 270.4 117.1 269.1 128.1 266.5C139.1 263.9 148.9 259 157.5 251.8C166.3 244.6 173.4 234.8 178.8 222.4C184.4 209.8 187.2 193.6 187.2 173.8C187.2 156.4 185 142.1 180.6 130.9C176.4 119.7 170.5 110.9 162.9 104.5C155.5 97.9 146.6 93.4 136.2 91C125.8 88.4 114.4 87.1 102 87.1C93 87.1 84.6 87.4 76.8 88C69 88.6 62 89.3 55.8 90.1C55.2 99.7 54.7 109.8 54.3 120.4C54.1 130.8 54 141.4 54 152.2V203.8ZM324.996 162.7C323.996 161.5 321.996 160.4 318.996 159.4C316.196 158.4 313.296 157.9 310.296 157.9C305.496 157.9 301.196 159 297.396 161.2C293.596 163.4 290.396 166.4 287.796 170.2C285.196 173.8 283.196 178.2 281.796 183.4C280.396 188.4 279.696 193.8 279.696 199.6V232.6C279.696 246 279.696 256.3 279.696 263.5C279.896 270.5 280.296 276.2 280.896 280.6C276.896 280.2 272.896 280 268.896 280C264.496 280 260.296 280.2 256.296 280.6C256.896 273.8 257.196 264.6 257.196 253C257.396 241.2 257.496 226.8 257.496 209.8V200.2C257.496 192.4 257.396 183.4 257.196 173.2C257.196 163 256.896 151.3 256.296 138.1C258.496 138.5 260.596 138.9 262.596 139.3C264.596 139.5 266.696 139.6 268.896 139.6C270.696 139.6 272.596 139.5 274.596 139.3C276.596 138.9 278.696 138.5 280.896 138.1C280.096 145.3 279.596 151 279.396 155.2C279.396 159.4 279.396 163.4 279.396 167.2L279.996 167.5C291.796 145.9 304.996 135.1 319.596 135.1C321.396 135.1 322.896 135.2 324.096 135.4C325.496 135.6 327.196 136.1 329.196 136.9C328.196 139.3 327.596 143 327.396 148C327.196 152.8 327.096 157.2 327.096 161.2L324.996 162.7ZM335.733 266.5C335.733 261.9 337.433 257.9 340.833 254.5C344.233 251.1 348.233 249.4 352.833 249.4C357.433 249.4 361.433 251.1 364.833 254.5C368.233 257.9 369.933 261.9 369.933 266.5C369.933 271.1 368.233 275 364.833 278.2C361.433 281.2 357.433 282.7 352.833 282.7C348.233 282.7 344.233 281.2 340.833 278.2C337.433 275 335.733 271.1 335.733 266.5ZM507.525 152.2C507.525 139 507.225 126.1 506.625 113.5C506.225 100.7 505.725 87.7 505.125 74.5C510.925 74.9 516.625 75.3 522.225 75.7C527.825 75.9 533.525 76 539.325 76C545.125 76 550.825 75.8 556.425 75.4C562.025 74.8 567.725 74.5 573.525 74.5C581.925 74.5 589.925 75.3 597.525 76.9C605.125 78.5 611.725 81.2 617.325 85C623.125 88.6 627.625 93.4 630.825 99.4C634.225 105.4 635.925 112.9 635.925 121.9C635.925 131.5 633.725 139.8 629.325 146.8C625.125 153.6 619.925 159.3 613.725 163.9C607.525 168.3 600.825 171.8 593.625 174.4C586.625 176.8 580.225 178.4 574.425 179.2C576.825 182.2 580.125 186.4 584.325 191.8C588.525 197.2 593.225 203.2 598.425 209.8C603.625 216.2 609.025 223 614.625 230.2C620.225 237.2 625.625 244 630.825 250.6C636.025 257 640.925 262.9 645.525 268.3C650.125 273.7 653.825 277.8 656.625 280.6C653.625 280.2 650.625 280 647.625 280C644.625 280 641.625 280 638.625 280C635.825 280 632.925 280 629.925 280C626.925 280 624.025 280.2 621.225 280.6C618.225 276.4 613.625 270.1 607.425 261.7C601.425 253.3 594.725 244.3 587.325 234.7C579.925 225.1 572.325 215.6 564.525 206.2C556.925 196.6 549.925 188.5 543.525 181.9H532.125V203.8C532.125 217 532.325 230 532.725 242.8C533.325 255.6 533.925 268.2 534.525 280.6C529.925 280.2 525.025 280 519.825 280C514.625 280 509.725 280.2 505.125 280.6C505.725 268.2 506.225 255.6 506.625 242.8C507.225 230 507.525 217 507.525 203.8V152.2ZM532.125 169.3C534.925 169.9 537.925 170.3 541.125 170.5C544.525 170.7 548.225 170.8 552.225 170.8C558.425 170.8 564.825 170.1 571.425 168.7C578.225 167.3 584.425 164.9 590.025 161.5C595.625 157.9 600.225 153.2 603.825 147.4C607.625 141.4 609.525 133.9 609.525 124.9C609.525 117.1 608.025 110.7 605.025 105.7C602.225 100.5 598.525 96.4 593.925 93.4C589.325 90.4 584.325 88.4 578.925 87.4C573.525 86.2 568.225 85.6 563.025 85.6C556.025 85.6 550.225 85.8 545.625 86.2C541.025 86.4 537.125 86.7 533.925 87.1C533.525 98.1 533.125 109 532.725 119.8C532.325 130.6 532.125 141.4 532.125 152.2V169.3ZM761.423 205.9C758.023 207.1 754.023 208.1 749.423 208.9C745.023 209.7 740.523 210.6 735.923 211.6C731.323 212.4 726.723 213.5 722.123 214.9C717.723 216.3 713.723 218.2 710.123 220.6C706.723 223 703.923 226 701.723 229.6C699.723 233.2 698.723 237.8 698.723 243.4C698.723 252.8 701.423 259.9 706.823 264.7C712.223 269.5 718.223 271.9 724.823 271.9C732.423 271.9 739.323 269.8 745.523 265.6C751.923 261.4 756.823 256.5 760.223 250.9L761.423 205.9ZM687.323 152.5C696.323 145.7 704.623 141.1 712.223 138.7C719.823 136.3 727.623 135.1 735.623 135.1C742.823 135.1 749.423 136.2 755.423 138.4C761.423 140.4 766.523 143.4 770.723 147.4C774.923 151.2 778.223 155.9 780.623 161.5C783.023 166.9 784.223 172.9 784.223 179.5C784.223 190.9 784.023 202.3 783.623 213.7C783.223 224.9 783.023 236.8 783.023 249.4C783.023 251.8 783.023 254.4 783.023 257.2C783.223 259.8 783.723 262.2 784.523 264.4C785.323 266.4 786.423 268.1 787.823 269.5C789.423 270.9 791.723 271.6 794.723 271.6C795.723 271.6 796.723 271.6 797.723 271.6C798.923 271.4 800.023 271 801.023 270.4V277C798.823 278 796.023 278.8 792.623 279.4C789.423 280 785.823 280.3 781.823 280.3C775.423 280.3 770.523 278.7 767.123 275.5C763.723 272.1 761.723 267.8 761.123 262.6C753.923 269.8 746.823 275.1 739.823 278.5C732.823 281.9 724.223 283.6 714.023 283.6C709.023 283.6 704.123 282.9 699.323 281.5C694.523 280.1 690.223 277.8 686.423 274.6C682.823 271.4 679.823 267.6 677.423 263.2C675.223 258.6 674.123 253.4 674.123 247.6C674.123 235.6 677.823 226.3 685.223 219.7C692.823 213.1 703.223 208.7 716.423 206.5C727.223 204.7 735.623 203.2 741.623 202C747.823 200.6 752.323 199.2 755.123 197.8C758.123 196.4 759.923 194.8 760.523 193C761.123 191 761.423 188.5 761.423 185.5C761.423 180.5 760.823 175.7 759.623 171.1C758.423 166.5 756.523 162.5 753.923 159.1C751.323 155.7 747.923 153 743.723 151C739.523 148.8 734.423 147.7 728.423 147.7C720.423 147.7 712.923 149.5 705.923 153.1C699.123 156.7 694.023 161.7 690.623 168.1H687.323V152.5ZM897.923 79.3C893.123 76.3 887.623 74.8 881.423 74.8C877.023 74.8 873.223 75.7 870.023 77.5C867.023 79.1 864.523 81.3 862.523 84.1C860.523 86.7 859.023 89.8 858.023 93.4C857.223 97 856.823 100.8 856.823 104.8C856.823 108.4 857.123 113.6 857.723 120.4C858.523 127.2 859.423 133.7 860.423 139.9C865.623 139.9 870.723 139.9 875.723 139.9C880.923 139.7 886.123 139.6 891.323 139.6C891.123 140.6 890.923 141.6 890.723 142.6C890.723 143.6 890.723 144.6 890.723 145.6C890.723 146.6 890.723 147.6 890.723 148.6C890.923 149.6 891.123 150.6 891.323 151.6C886.123 151.4 880.923 151.2 875.723 151C870.723 150.8 865.623 150.7 860.423 150.7C860.423 172.5 860.423 194.2 860.423 215.8C860.623 237.2 861.023 258.8 861.623 280.6C859.423 280.2 857.223 280 855.023 280C852.823 280 850.723 280 848.723 280C844.523 280 840.123 280.2 835.523 280.6C836.923 258.8 837.723 237.3 837.923 216.1C838.123 194.7 838.223 172.9 838.223 150.7C834.623 150.7 831.023 150.8 827.423 151C823.823 151.2 820.223 151.4 816.623 151.6C816.823 150.6 816.923 149.6 816.923 148.6C817.123 147.6 817.223 146.6 817.223 145.6C817.223 144.6 817.123 143.6 816.923 142.6C816.923 141.6 816.823 140.6 816.623 139.6C820.223 139.6 823.823 139.7 827.423 139.9C831.223 139.9 834.823 139.9 838.223 139.9C838.223 134.1 838.823 127.8 840.023 121C841.223 114.2 842.923 107.5 845.123 100.9C847.523 94.3 850.323 88.1 853.523 82.3C856.723 76.3 860.323 71.3 864.323 67.3C867.923 63.7 872.423 60.5 877.823 57.7C883.423 54.9 889.123 53.5 894.923 53.5C897.123 53.5 899.123 53.8 900.923 54.4C900.723 58.4 900.423 62.4 900.023 66.4C899.823 70.4 899.723 74.4 899.723 78.4L897.923 79.3ZM994.92 205.9C991.52 207.1 987.52 208.1 982.92 208.9C978.52 209.7 974.02 210.6 969.42 211.6C964.82 212.4 960.22 213.5 955.62 214.9C951.22 216.3 947.22 218.2 943.62 220.6C940.22 223 937.42 226 935.22 229.6C933.22 233.2 932.22 237.8 932.22 243.4C932.22 252.8 934.92 259.9 940.32 264.7C945.72 269.5 951.72 271.9 958.32 271.9C965.92 271.9 972.82 269.8 979.02 265.6C985.42 261.4 990.32 256.5 993.72 250.9L994.92 205.9ZM920.82 152.5C929.82 145.7 938.12 141.1 945.72 138.7C953.32 136.3 961.12 135.1 969.12 135.1C976.32 135.1 982.92 136.2 988.92 138.4C994.92 140.4 1000.02 143.4 1004.22 147.4C1008.42 151.2 1011.72 155.9 1014.12 161.5C1016.52 166.9 1017.72 172.9 1017.72 179.5C1017.72 190.9 1017.52 202.3 1017.12 213.7C1016.72 224.9 1016.52 236.8 1016.52 249.4C1016.52 251.8 1016.52 254.4 1016.52 257.2C1016.72 259.8 1017.22 262.2 1018.02 264.4C1018.82 266.4 1019.92 268.1 1021.32 269.5C1022.92 270.9 1025.22 271.6 1028.22 271.6C1029.22 271.6 1030.22 271.6 1031.22 271.6C1032.42 271.4 1033.52 271 1034.52 270.4V277C1032.32 278 1029.52 278.8 1026.12 279.4C1022.92 280 1019.32 280.3 1015.32 280.3C1008.92 280.3 1004.02 278.7 1000.62 275.5C997.22 272.1 995.22 267.8 994.62 262.6C987.42 269.8 980.32 275.1 973.32 278.5C966.32 281.9 957.72 283.6 947.52 283.6C942.52 283.6 937.62 282.9 932.82 281.5C928.02 280.1 923.72 277.8 919.92 274.6C916.32 271.4 913.32 267.6 910.92 263.2C908.72 258.6 907.62 253.4 907.62 247.6C907.62 235.6 911.32 226.3 918.72 219.7C926.32 213.1 936.72 208.7 949.92 206.5C960.72 204.7 969.12 203.2 975.12 202C981.32 200.6 985.82 199.2 988.62 197.8C991.62 196.4 993.42 194.8 994.02 193C994.62 191 994.92 188.5 994.92 185.5C994.92 180.5 994.32 175.7 993.12 171.1C991.92 166.5 990.02 162.5 987.42 159.1C984.82 155.7 981.42 153 977.22 151C973.02 148.8 967.92 147.7 961.92 147.7C953.92 147.7 946.42 149.5 939.42 153.1C932.62 156.7 927.52 161.7 924.12 168.1H920.82V152.5ZM1124.82 144.7C1117.42 144.7 1111.12 146.4 1105.92 149.8C1100.92 153.2 1096.72 157.5 1093.32 162.7C1090.12 167.7 1087.62 173.3 1085.82 179.5C1084.22 185.5 1083.22 191.2 1082.82 196.6C1089.02 196.8 1095.42 197 1102.02 197.2C1108.82 197.4 1115.42 197.5 1121.82 197.5C1128.42 197.5 1135.12 197.4 1141.92 197.2C1148.72 197 1155.32 196.8 1161.72 196.6C1161.72 191.2 1161.22 185.5 1160.22 179.5C1159.42 173.5 1157.62 167.9 1154.82 162.7C1152.22 157.5 1148.52 153.2 1143.72 149.8C1138.92 146.4 1132.62 144.7 1124.82 144.7ZM1055.52 214C1055.52 189.4 1061.32 170.1 1072.92 156.1C1084.72 142.1 1101.82 135.1 1124.22 135.1C1134.82 135.1 1143.92 136.8 1151.52 140.2C1159.32 143.4 1165.82 147.8 1171.02 153.4C1176.22 158.8 1180.02 165.2 1182.42 172.6C1185.02 180 1186.32 187.9 1186.32 196.3C1186.32 198.3 1186.22 200.3 1186.02 202.3C1186.02 204.1 1185.92 206 1185.72 208C1174.92 207.8 1164.22 207.6 1153.62 207.4C1143.02 207.2 1132.32 207.1 1121.52 207.1C1114.92 207.1 1108.32 207.2 1101.72 207.4C1095.32 207.6 1088.82 207.8 1082.22 208C1082.02 209 1081.92 210.5 1081.92 212.5V216.4C1081.92 224.2 1083.02 231.5 1085.22 238.3C1087.62 245.1 1091.02 251 1095.42 256C1099.82 260.8 1105.22 264.7 1111.62 267.7C1118.02 270.5 1125.42 271.9 1133.82 271.9C1137.82 271.9 1141.92 271.4 1146.12 270.4C1150.32 269.2 1154.42 267.7 1158.42 265.9C1162.42 263.9 1166.12 261.6 1169.52 259C1173.12 256.4 1176.22 253.6 1178.82 250.6L1180.32 251.5L1178.52 266.2C1172.52 271 1165.02 275.1 1156.02 278.5C1147.22 281.9 1138.02 283.6 1128.42 283.6C1117.62 283.6 1107.72 282 1098.72 278.8C1089.92 275.4 1082.22 270.6 1075.62 264.4C1069.22 258 1064.22 250.5 1060.62 241.9C1057.22 233.3 1055.52 224 1055.52 214ZM1225.62 140.8C1225.62 134 1225.52 126.6 1225.32 118.6C1225.32 110.6 1225.22 102.7 1225.02 94.9C1224.82 87.1 1224.52 79.7 1224.12 72.7C1223.92 65.5 1223.62 59.4 1223.22 54.4C1228.82 55.4 1233.32 55.9 1236.72 55.9C1240.12 55.9 1244.62 55.4 1250.22 54.4C1249.82 59.4 1249.42 65.5 1249.02 72.7C1248.82 79.7 1248.62 87.1 1248.42 94.9C1248.22 102.7 1248.02 110.6 1247.82 118.6C1247.82 126.6 1247.82 134 1247.82 140.8V195.1C1247.82 201.9 1247.82 209.3 1247.82 217.3C1248.02 225.3 1248.22 233.2 1248.42 241C1248.62 248.8 1248.82 256.2 1249.02 263.2C1249.42 270.2 1249.82 276 1250.22 280.6C1245.62 280.2 1241.12 280 1236.72 280C1232.32 280 1227.82 280.2 1223.22 280.6C1223.62 276 1223.92 270.2 1224.12 263.2C1224.52 256.2 1224.82 248.8 1225.02 241C1225.22 233.2 1225.32 225.3 1225.32 217.3C1225.52 209.3 1225.62 201.9 1225.62 195.1V140.8ZM1410.61 70.6C1424.41 99 1438.31 126.6 1452.31 153.4C1466.51 180.2 1481.31 207.7 1496.71 235.9C1498.71 232.1 1501.61 226.7 1505.41 219.7C1509.21 212.5 1513.61 204.3 1518.61 195.1C1523.61 185.9 1528.91 176 1534.51 165.4C1540.31 154.6 1546.11 143.7 1551.91 132.7C1557.91 121.7 1563.81 110.9 1569.61 100.3C1575.41 89.7 1580.81 79.8 1585.81 70.6H1589.71C1591.91 89.8 1593.91 108.4 1595.71 126.4C1597.71 144.2 1599.71 161.8 1601.71 179.2C1603.71 196.4 1605.71 213.5 1607.71 230.5C1609.71 247.3 1611.91 264 1614.31 280.6C1611.91 280.2 1609.51 280 1607.11 280C1604.91 280 1602.61 280 1600.21 280C1597.81 280 1595.41 280 1593.01 280C1590.81 280 1588.51 280.2 1586.11 280.6C1583.91 254 1581.71 228.2 1579.51 203.2C1577.31 178.2 1574.61 152.7 1571.41 126.7H1570.81C1557.01 151.9 1543.41 177 1530.01 202C1516.81 226.8 1504.21 252.8 1492.21 280H1489.51C1477.51 254.8 1464.91 229.6 1451.71 204.4C1438.71 179 1425.61 153.1 1412.41 126.7H1411.81C1410.41 139.1 1408.81 152.6 1407.01 167.2C1405.41 181.6 1403.91 195.9 1402.51 210.1C1401.11 224.1 1399.91 237.4 1398.91 250C1397.91 262.4 1397.41 272.6 1397.41 280.6C1394.21 280.2 1390.71 280 1386.91 280C1383.11 280 1379.61 280.2 1376.41 280.6C1379.01 264.4 1381.71 247.3 1384.51 229.3C1387.31 211.3 1390.01 193.2 1392.61 175C1395.21 156.8 1397.61 138.9 1399.81 121.3C1402.01 103.5 1403.91 86.6 1405.51 70.6H1410.61ZM1665.51 209.8C1665.51 218.2 1666.21 226.3 1667.61 234.1C1669.21 241.9 1671.81 248.9 1675.41 255.1C1679.01 261.1 1683.81 265.9 1689.81 269.5C1695.81 273.1 1703.21 274.9 1712.01 274.9C1720.81 274.9 1728.21 273.1 1734.21 269.5C1740.21 265.9 1745.01 261.1 1748.61 255.1C1752.21 248.9 1754.71 241.9 1756.11 234.1C1757.71 226.3 1758.51 218.2 1758.51 209.8C1758.51 201.4 1757.71 193.3 1756.11 185.5C1754.71 177.7 1752.21 170.8 1748.61 164.8C1745.01 158.6 1740.21 153.7 1734.21 150.1C1728.21 146.5 1720.81 144.7 1712.01 144.7C1703.21 144.7 1695.81 146.5 1689.81 150.1C1683.81 153.7 1679.01 158.6 1675.41 164.8C1671.81 170.8 1669.21 177.7 1667.61 185.5C1666.21 193.3 1665.51 201.4 1665.51 209.8ZM1639.11 209.8C1639.11 196.2 1641.21 184.7 1645.41 175.3C1649.81 165.7 1655.51 158 1662.51 152.2C1669.51 146.2 1677.31 141.9 1685.91 139.3C1694.71 136.5 1703.41 135.1 1712.01 135.1C1720.81 135.1 1729.51 136.5 1738.11 139.3C1746.71 141.9 1754.51 146.2 1761.51 152.2C1768.51 158 1774.11 165.7 1778.31 175.3C1782.71 184.7 1784.91 196.2 1784.91 209.8C1784.91 223.4 1782.71 235 1778.31 244.6C1774.11 254 1768.51 261.7 1761.51 267.7C1754.51 273.5 1746.71 277.6 1738.11 280C1729.51 282.4 1720.81 283.6 1712.01 283.6C1703.41 283.6 1694.71 282.4 1685.91 280C1677.31 277.6 1669.51 273.5 1662.51 267.7C1655.51 261.7 1649.81 254 1645.41 244.6C1641.21 235 1639.11 223.4 1639.11 209.8ZM1915.91 196.3C1915.91 181.3 1913.01 170 1907.21 162.4C1901.41 154.6 1893.41 150.7 1883.21 150.7C1869.21 150.7 1858.91 155 1852.31 163.6C1845.91 172.2 1842.71 184.3 1842.71 199.9V225.4C1842.71 234.4 1842.81 243.9 1843.01 253.9C1843.41 263.7 1844.11 272.6 1845.11 280.6C1840.51 280.2 1836.01 280 1831.61 280C1827.21 280 1822.71 280.2 1818.11 280.6C1819.11 272.6 1819.71 263.7 1819.91 253.9C1820.31 243.9 1820.51 234.4 1820.51 225.4V194.2C1820.51 185.2 1820.31 175.8 1819.91 166C1819.71 156 1819.11 146.7 1818.11 138.1C1823.71 139.1 1828.21 139.6 1831.61 139.6C1833.21 139.6 1834.91 139.5 1836.71 139.3C1838.71 138.9 1841.01 138.5 1843.61 138.1C1843.01 146.1 1842.71 154.1 1842.71 162.1H1843.31C1848.91 153.5 1855.61 146.9 1863.41 142.3C1871.21 137.5 1880.51 135.1 1891.31 135.1C1896.91 135.1 1902.51 135.9 1908.11 137.5C1913.91 139.1 1919.11 141.9 1923.71 145.9C1928.31 149.7 1932.01 155 1934.81 161.8C1937.81 168.4 1939.31 176.9 1939.31 187.3C1939.31 195.9 1939.11 204.8 1938.71 214C1938.31 223 1938.11 232.6 1938.11 242.8V262.3C1938.11 265.5 1938.11 268.7 1938.11 271.9C1938.31 274.9 1938.51 277.8 1938.71 280.6C1934.71 280.2 1930.51 280 1926.11 280C1921.91 280 1917.81 280.2 1913.81 280.6C1914.21 270.2 1914.61 259.5 1915.01 248.5C1915.61 237.5 1915.91 226.2 1915.91 214.6V196.3ZM2012.11 97.9C2011.51 105.5 2011.01 113 2010.61 120.4C2010.41 127.6 2010.11 134.9 2009.71 142.3C2011.91 142.3 2016.01 142.3 2022.01 142.3C2028.01 142.1 2034.51 141.8 2041.51 141.4C2041.31 142 2041.21 143.1 2041.21 144.7V147.7V151C2041.21 152.4 2041.31 153.4 2041.51 154C2038.91 153.8 2036.21 153.7 2033.41 153.7C2030.61 153.5 2027.61 153.4 2024.41 153.4H2009.71C2009.51 154.2 2009.21 157.4 2008.81 163C2008.61 168.6 2008.41 175.3 2008.21 183.1C2008.01 190.7 2007.81 198.7 2007.61 207.1C2007.61 215.5 2007.61 223 2007.61 229.6C2007.61 235.2 2007.71 240.7 2007.91 246.1C2008.31 251.5 2009.31 256.4 2010.91 260.8C2012.51 265 2014.91 268.4 2018.11 271C2021.31 273.6 2025.91 274.9 2031.91 274.9C2033.51 274.9 2035.61 274.7 2038.21 274.3C2041.01 273.9 2043.41 273.4 2045.41 272.8V280C2042.01 280.6 2038.21 281.3 2034.01 282.1C2030.01 283.1 2026.11 283.6 2022.31 283.6C2009.71 283.6 2000.41 280.5 1994.41 274.3C1988.41 268.1 1985.41 259 1985.41 247C1985.41 241.6 1985.51 235.8 1985.71 229.6C1985.91 223.2 1986.11 216.3 1986.31 208.9C1986.71 201.3 1987.01 193 1987.21 184C1987.41 174.8 1987.51 164.6 1987.51 153.4H1977.91C1976.31 153.4 1974.61 153.5 1972.81 153.7C1971.01 153.7 1969.11 153.8 1967.11 154C1967.31 152.8 1967.41 151.7 1967.41 150.7C1967.61 149.5 1967.71 148.3 1967.71 147.1C1967.71 146.1 1967.61 145.1 1967.41 144.1C1967.41 143.1 1967.31 142.1 1967.11 141.1C1976.11 141.7 1982.71 142 1986.91 142C1986.71 138 1986.51 133 1986.31 127C1986.31 121 1986.11 114.8 1985.71 108.4L2010.61 97.9H2012.11ZM2125.31 144.7C2117.91 144.7 2111.61 146.4 2106.41 149.8C2101.41 153.2 2097.21 157.5 2093.81 162.7C2090.61 167.7 2088.11 173.3 2086.31 179.5C2084.71 185.5 2083.71 191.2 2083.31 196.6C2089.51 196.8 2095.91 197 2102.51 197.2C2109.31 197.4 2115.91 197.5 2122.31 197.5C2128.91 197.5 2135.61 197.4 2142.41 197.2C2149.21 197 2155.81 196.8 2162.21 196.6C2162.21 191.2 2161.71 185.5 2160.71 179.5C2159.91 173.5 2158.11 167.9 2155.31 162.7C2152.71 157.5 2149.01 153.2 2144.21 149.8C2139.41 146.4 2133.11 144.7 2125.31 144.7ZM2056.01 214C2056.01 189.4 2061.81 170.1 2073.41 156.1C2085.21 142.1 2102.31 135.1 2124.71 135.1C2135.31 135.1 2144.41 136.8 2152.01 140.2C2159.81 143.4 2166.31 147.8 2171.51 153.4C2176.71 158.8 2180.51 165.2 2182.91 172.6C2185.51 180 2186.81 187.9 2186.81 196.3C2186.81 198.3 2186.71 200.3 2186.51 202.3C2186.51 204.1 2186.41 206 2186.21 208C2175.41 207.8 2164.71 207.6 2154.11 207.4C2143.51 207.2 2132.81 207.1 2122.01 207.1C2115.41 207.1 2108.81 207.2 2102.21 207.4C2095.81 207.6 2089.31 207.8 2082.71 208C2082.51 209 2082.41 210.5 2082.41 212.5V216.4C2082.41 224.2 2083.51 231.5 2085.71 238.3C2088.11 245.1 2091.51 251 2095.91 256C2100.31 260.8 2105.71 264.7 2112.11 267.7C2118.51 270.5 2125.91 271.9 2134.31 271.9C2138.31 271.9 2142.41 271.4 2146.61 270.4C2150.81 269.2 2154.91 267.7 2158.91 265.9C2162.91 263.9 2166.61 261.6 2170.01 259C2173.61 256.4 2176.71 253.6 2179.31 250.6L2180.81 251.5L2179.01 266.2C2173.01 271 2165.51 275.1 2156.51 278.5C2147.71 281.9 2138.51 283.6 2128.91 283.6C2118.11 283.6 2108.21 282 2099.21 278.8C2090.41 275.4 2082.71 270.6 2076.11 264.4C2069.71 258 2064.71 250.5 2061.11 241.9C2057.71 233.3 2056.01 224 2056.01 214ZM2221.91 85.9C2221.91 81.7 2223.41 78.1 2226.41 75.1C2229.41 72.1 2233.01 70.6 2237.21 70.6C2241.41 70.6 2245.01 72.1 2248.01 75.1C2251.01 78.1 2252.51 81.7 2252.51 85.9C2252.51 90.1 2251.01 93.7 2248.01 96.7C2245.01 99.7 2241.41 101.2 2237.21 101.2C2233.01 101.2 2229.41 99.7 2226.41 96.7C2223.41 93.7 2221.91 90.1 2221.91 85.9ZM2226.11 194.2C2226.11 185.2 2225.91 175.8 2225.51 166C2225.31 156 2224.71 146.7 2223.71 138.1C2229.31 139.1 2233.81 139.6 2237.21 139.6C2240.61 139.6 2245.11 139.1 2250.71 138.1C2249.71 146.7 2249.01 156 2248.61 166C2248.41 175.8 2248.31 185.2 2248.31 194.2V225.4C2248.31 234.4 2248.41 243.9 2248.61 253.9C2249.01 263.7 2249.71 272.6 2250.71 280.6C2246.11 280.2 2241.61 280 2237.21 280C2232.81 280 2228.31 280.2 2223.71 280.6C2224.71 272.6 2225.31 263.7 2225.51 253.9C2225.91 243.9 2226.11 234.4 2226.11 225.4V194.2ZM2370.5 162.7C2369.5 161.5 2367.5 160.4 2364.5 159.4C2361.7 158.4 2358.8 157.9 2355.8 157.9C2351 157.9 2346.7 159 2342.9 161.2C2339.1 163.4 2335.9 166.4 2333.3 170.2C2330.7 173.8 2328.7 178.2 2327.3 183.4C2325.9 188.4 2325.2 193.8 2325.2 199.6V232.6C2325.2 246 2325.2 256.3 2325.2 263.5C2325.4 270.5 2325.8 276.2 2326.4 280.6C2322.4 280.2 2318.4 280 2314.4 280C2310 280 2305.8 280.2 2301.8 280.6C2302.4 273.8 2302.7 264.6 2302.7 253C2302.9 241.2 2303 226.8 2303 209.8V200.2C2303 192.4 2302.9 183.4 2302.7 173.2C2302.7 163 2302.4 151.3 2301.8 138.1C2304 138.5 2306.1 138.9 2308.1 139.3C2310.1 139.5 2312.2 139.6 2314.4 139.6C2316.2 139.6 2318.1 139.5 2320.1 139.3C2322.1 138.9 2324.2 138.5 2326.4 138.1C2325.6 145.3 2325.1 151 2324.9 155.2C2324.9 159.4 2324.9 163.4 2324.9 167.2L2325.5 167.5C2337.3 145.9 2350.5 135.1 2365.1 135.1C2366.9 135.1 2368.4 135.2 2369.6 135.4C2371 135.6 2372.7 136.1 2374.7 136.9C2373.7 139.3 2373.1 143 2372.9 148C2372.7 152.8 2372.6 157.2 2372.6 161.2L2370.5 162.7ZM2415.81 209.8C2415.81 218.2 2416.51 226.3 2417.91 234.1C2419.51 241.9 2422.11 248.9 2425.71 255.1C2429.31 261.1 2434.11 265.9 2440.11 269.5C2446.11 273.1 2453.51 274.9 2462.31 274.9C2471.11 274.9 2478.51 273.1 2484.51 269.5C2490.51 265.9 2495.31 261.1 2498.91 255.1C2502.51 248.9 2505.01 241.9 2506.41 234.1C2508.01 226.3 2508.81 218.2 2508.81 209.8C2508.81 201.4 2508.01 193.3 2506.41 185.5C2505.01 177.7 2502.51 170.8 2498.91 164.8C2495.31 158.6 2490.51 153.7 2484.51 150.1C2478.51 146.5 2471.11 144.7 2462.31 144.7C2453.51 144.7 2446.11 146.5 2440.11 150.1C2434.11 153.7 2429.31 158.6 2425.71 164.8C2422.11 170.8 2419.51 177.7 2417.91 185.5C2416.51 193.3 2415.81 201.4 2415.81 209.8ZM2389.41 209.8C2389.41 196.2 2391.51 184.7 2395.71 175.3C2400.11 165.7 2405.81 158 2412.81 152.2C2419.81 146.2 2427.61 141.9 2436.21 139.3C2445.01 136.5 2453.71 135.1 2462.31 135.1C2471.11 135.1 2479.81 136.5 2488.41 139.3C2497.01 141.9 2504.81 146.2 2511.81 152.2C2518.81 158 2524.41 165.7 2528.61 175.3C2533.01 184.7 2535.21 196.2 2535.21 209.8C2535.21 223.4 2533.01 235 2528.61 244.6C2524.41 254 2518.81 261.7 2511.81 267.7C2504.81 273.5 2497.01 277.6 2488.41 280C2479.81 282.4 2471.11 283.6 2462.31 283.6C2453.71 283.6 2445.01 282.4 2436.21 280C2427.61 277.6 2419.81 273.5 2412.81 267.7C2405.81 261.7 2400.11 254 2395.71 244.6C2391.51 235 2389.41 223.4 2389.41 209.8Z" fill="url(#paint0_linear_2017_228)"/>
</g>
<g filter="url(#filter1_d_2017_228)">
<path d="M1055.8 543.158C1046.48 543.158 1037.86 541.639 1029.95 538.599C1022.04 535.443 1015.2 531.06 1009.41 525.448C1003.63 519.837 999.085 513.233 995.78 505.634C992.593 498.036 991 489.736 991 480.735C991 471.734 992.593 463.435 995.78 455.836C999.085 448.238 1003.63 441.633 1009.41 436.022C1015.31 430.411 1022.22 426.086 1030.13 423.047C1038.04 419.891 1046.65 418.312 1055.98 418.312C1064.95 418.312 1073.39 419.832 1081.29 422.871C1089.2 425.794 1095.87 430.236 1101.3 436.198L1092.98 444.439C1087.9 439.295 1082.3 435.613 1076.16 433.392C1070.02 431.054 1063.41 429.885 1056.33 429.885C1048.9 429.885 1041.99 431.171 1035.62 433.743C1029.24 436.198 1023.7 439.763 1018.97 444.439C1014.25 448.998 1010.53 454.375 1007.82 460.571C1005.22 466.649 1003.92 473.371 1003.92 480.735C1003.92 488.1 1005.22 494.88 1007.82 501.075C1010.53 507.154 1014.25 512.531 1018.97 517.207C1023.7 521.766 1029.24 525.332 1035.62 527.903C1041.99 530.358 1048.9 531.586 1056.33 531.586C1063.41 531.586 1070.02 530.417 1076.16 528.079C1082.3 525.741 1087.9 522 1092.98 516.857L1101.3 525.098C1095.87 531.06 1089.2 535.56 1081.29 538.599C1073.39 541.639 1064.89 543.158 1055.8 543.158Z" fill="white"/>
<path d="M1126.58 542.106V450.05H1139.15V542.106H1126.58ZM1132.95 429.71C1130.35 429.71 1128.17 428.833 1126.4 427.08C1124.63 425.326 1123.74 423.222 1123.74 420.767C1123.74 418.312 1124.63 416.267 1126.4 414.63C1128.17 412.877 1130.35 412 1132.95 412C1135.55 412 1137.73 412.818 1139.5 414.455C1141.27 416.091 1142.16 418.137 1142.16 420.592C1142.16 423.164 1141.27 425.326 1139.5 427.08C1137.85 428.833 1135.66 429.71 1132.95 429.71Z" fill="white"/>
<path d="M1174.12 542.106V450.05H1186.16V475.124L1184.92 470.741C1187.52 463.727 1191.89 458.408 1198.02 454.784C1204.16 451.044 1211.78 449.173 1220.86 449.173V461.272C1220.39 461.272 1219.92 461.272 1219.45 461.272C1218.98 461.155 1218.5 461.097 1218.03 461.097C1208.23 461.097 1200.56 464.078 1195.01 470.039C1189.47 475.884 1186.69 484.242 1186.69 495.114V542.106H1174.12Z" fill="white"/>
<path d="M1283.6 542.983C1275.7 542.983 1268.79 541.522 1262.89 538.599C1256.99 535.677 1252.38 531.293 1249.08 525.448C1245.89 519.604 1244.3 512.298 1244.3 503.53V450.05H1256.87V502.128C1256.87 511.947 1259.29 519.37 1264.13 524.396C1269.09 529.306 1275.99 531.761 1284.84 531.761C1291.34 531.761 1296.94 530.475 1301.66 527.903C1306.5 525.215 1310.16 521.357 1312.64 516.331C1315.24 511.304 1316.54 505.284 1316.54 498.27V450.05H1329.11V542.106H1317.07V516.857L1319.01 521.416C1316.06 528.196 1311.46 533.514 1305.2 537.372C1299.07 541.113 1291.87 542.983 1283.6 542.983Z" fill="white"/>
<path d="M1364.14 542.106V450.05H1376.18V475.124L1374.94 470.741C1377.54 463.727 1381.9 458.408 1388.04 454.784C1394.18 451.044 1401.79 449.173 1410.88 449.173V461.272C1410.41 461.272 1409.94 461.272 1409.46 461.272C1408.99 461.155 1408.52 461.097 1408.05 461.097C1398.25 461.097 1390.58 464.078 1385.03 470.039C1379.48 475.884 1376.71 484.242 1376.71 495.114V542.106H1364.14Z" fill="white"/>
<path d="M1472.61 577C1464.11 577 1455.97 575.773 1448.18 573.318C1440.39 570.863 1434.07 567.356 1429.24 562.797L1435.61 553.328C1439.98 557.186 1445.35 560.225 1451.72 562.446C1458.21 564.784 1465.06 565.953 1472.26 565.953C1484.06 565.953 1492.74 563.206 1498.28 557.712C1503.83 552.335 1506.61 543.918 1506.61 532.462V509.492L1508.38 493.711L1507.14 477.93V450.05H1519.18V530.884C1519.18 546.782 1515.22 558.413 1507.31 565.778C1499.52 573.259 1487.96 577 1472.61 577ZM1470.31 538.599C1461.46 538.599 1453.49 536.729 1446.41 532.988C1439.33 529.131 1433.72 523.812 1429.59 517.032C1425.58 510.252 1423.57 502.478 1423.57 493.711C1423.57 484.944 1425.58 477.228 1429.59 470.565C1433.72 463.785 1439.33 458.525 1446.41 454.784C1453.49 451.044 1461.46 449.173 1470.31 449.173C1478.57 449.173 1486.01 450.868 1492.62 454.258C1499.23 457.648 1504.48 462.675 1508.38 469.338C1512.27 476.001 1514.22 484.125 1514.22 493.711C1514.22 503.296 1512.27 511.421 1508.38 518.084C1504.48 524.747 1499.23 529.832 1492.62 533.339C1486.01 536.846 1478.57 538.599 1470.31 538.599ZM1471.55 527.553C1478.4 527.553 1484.47 526.15 1489.79 523.344C1495.1 520.422 1499.29 516.447 1502.36 511.421C1505.43 506.277 1506.96 500.374 1506.96 493.711C1506.96 487.048 1505.43 481.203 1502.36 476.176C1499.29 471.15 1495.1 467.234 1489.79 464.428C1484.47 461.506 1478.4 460.045 1471.55 460.045C1464.82 460.045 1458.74 461.506 1453.31 464.428C1448 467.234 1443.81 471.15 1440.74 476.176C1437.79 481.203 1436.32 487.048 1436.32 493.711C1436.32 500.374 1437.79 506.277 1440.74 511.421C1443.81 516.447 1448 520.422 1453.31 523.344C1458.74 526.15 1464.82 527.553 1471.55 527.553Z" fill="white"/>
<path d="M1554.16 542.106V450.05H1566.73V542.106H1554.16ZM1560.53 429.71C1557.93 429.71 1555.75 428.833 1553.98 427.08C1552.21 425.326 1551.32 423.222 1551.32 420.767C1551.32 418.312 1552.21 416.267 1553.98 414.63C1555.75 412.877 1557.93 412 1560.53 412C1563.13 412 1565.31 412.818 1567.08 414.455C1568.85 416.091 1569.74 418.137 1569.74 420.592C1569.74 423.164 1568.85 425.326 1567.08 427.08C1565.43 428.833 1563.24 429.71 1560.53 429.71Z" fill="white"/>
<path d="M1659.95 542.106V521.766L1659.42 518.435V484.418C1659.42 476.586 1657.18 470.565 1652.69 466.357C1648.33 462.149 1641.77 460.045 1633.04 460.045C1627.02 460.045 1621.3 461.038 1615.87 463.026C1610.44 465.013 1605.83 467.643 1602.06 470.916L1596.39 461.623C1601.11 457.648 1606.78 454.609 1613.39 452.505C1620 450.284 1626.96 449.173 1634.28 449.173C1646.32 449.173 1655.58 452.154 1662.08 458.116C1668.69 463.961 1671.99 472.903 1671.99 484.944V542.106H1659.95ZM1627.91 542.983C1620.94 542.983 1614.86 541.872 1609.67 539.651C1604.59 537.313 1600.7 534.157 1597.98 530.183C1595.27 526.091 1593.91 521.416 1593.91 516.155C1593.91 511.362 1595.03 507.037 1597.28 503.18C1599.64 499.205 1603.41 496.049 1608.61 493.711C1613.92 491.256 1621 490.029 1629.85 490.029H1661.9V499.322H1630.21C1621.24 499.322 1614.98 500.9 1611.44 504.056C1608.02 507.213 1606.31 511.129 1606.31 515.804C1606.31 521.065 1608.37 525.273 1612.5 528.429C1616.63 531.586 1622.42 533.164 1629.85 533.164C1636.94 533.164 1643.01 531.586 1648.09 528.429C1653.28 525.156 1657.06 520.48 1659.42 514.402L1662.25 522.994C1659.89 529.072 1655.76 533.923 1649.86 537.547C1644.08 541.171 1636.76 542.983 1627.91 542.983ZM1646.67 434.62C1643.96 434.62 1641.54 434.035 1639.41 432.866C1637.29 431.697 1635.34 430.353 1633.57 428.833C1631.92 427.197 1630.27 425.794 1628.61 424.625C1626.96 423.339 1625.25 422.696 1623.48 422.696C1620.77 422.696 1618.58 423.69 1616.93 425.677C1615.39 427.664 1614.51 430.411 1614.27 433.918H1606.66C1606.9 428.073 1608.43 423.397 1611.26 419.891C1614.21 416.384 1617.99 414.63 1622.59 414.63C1625.31 414.63 1627.73 415.273 1629.85 416.559C1632.1 417.728 1634.04 419.131 1635.7 420.767C1637.47 422.287 1639.12 423.631 1640.65 424.8C1642.31 425.969 1644.02 426.554 1645.79 426.554C1648.5 426.554 1650.69 425.618 1652.34 423.748C1653.99 421.761 1654.88 419.072 1654.99 415.682H1662.61C1662.49 421.293 1660.96 425.852 1658 429.359C1655.05 432.866 1651.28 434.62 1646.67 434.62Z" fill="white"/>
<path d="M1744.02 542.983C1735.05 542.983 1726.97 540.996 1719.77 537.021C1712.68 532.93 1707.08 527.377 1702.95 520.363C1698.82 513.233 1696.75 505.108 1696.75 495.99C1696.75 486.756 1698.82 478.631 1702.95 471.617C1707.08 464.604 1712.68 459.109 1719.77 455.135C1726.85 451.16 1734.93 449.173 1744.02 449.173C1753.23 449.173 1761.37 451.16 1768.46 455.135C1775.66 459.109 1781.26 464.604 1785.28 471.617C1789.41 478.631 1791.47 486.756 1791.47 495.99C1791.47 505.108 1789.41 513.233 1785.28 520.363C1781.26 527.377 1775.66 532.93 1768.46 537.021C1761.26 540.996 1753.11 542.983 1744.02 542.983ZM1744.02 531.936C1750.75 531.936 1756.71 530.475 1761.9 527.553C1767.1 524.513 1771.17 520.305 1774.12 514.928C1777.19 509.434 1778.72 503.121 1778.72 495.99C1778.72 488.743 1777.19 482.43 1774.12 477.053C1771.17 471.676 1767.1 467.526 1761.9 464.604C1756.71 461.564 1750.81 460.045 1744.2 460.045C1737.59 460.045 1731.69 461.564 1726.49 464.604C1721.3 467.526 1717.17 471.676 1714.1 477.053C1711.03 482.43 1709.5 488.743 1709.5 495.99C1709.5 503.121 1711.03 509.434 1714.1 514.928C1717.17 520.305 1721.3 524.513 1726.49 527.553C1731.69 530.475 1737.53 531.936 1744.02 531.936Z" fill="white"/>
<path d="M1866.13 542.106V419.365H1912.52C1923.02 419.365 1932.05 421.06 1939.6 424.45C1947.16 427.723 1952.94 432.515 1956.95 438.828C1961.09 445.023 1963.15 452.563 1963.15 461.447C1963.15 470.098 1961.09 477.579 1956.95 483.892C1952.94 490.087 1947.16 494.88 1939.6 498.27C1932.05 501.66 1923.02 503.355 1912.52 503.355H1873.39L1879.23 497.218V542.106H1866.13ZM1879.23 498.27L1873.39 491.957H1912.16C1924.55 491.957 1933.94 489.327 1940.31 484.067C1946.8 478.69 1950.05 471.15 1950.05 461.447C1950.05 451.628 1946.8 444.03 1940.31 438.652C1933.94 433.275 1924.55 430.587 1912.16 430.587H1873.39L1879.23 424.45V498.27Z" fill="white"/>
<path d="M1990.55 542.106V412H2003.12V542.106H1990.55Z" fill="white"/>
<path d="M2096.35 542.106V521.766L2095.82 518.435V484.418C2095.82 476.586 2093.58 470.565 2089.09 466.357C2084.72 462.149 2078.17 460.045 2069.44 460.045C2063.42 460.045 2057.69 461.038 2052.26 463.026C2046.84 465.013 2042.23 467.643 2038.46 470.916L2032.79 461.623C2037.51 457.648 2043.18 454.609 2049.79 452.505C2056.4 450.284 2063.36 449.173 2070.68 449.173C2082.72 449.173 2091.98 452.154 2098.47 458.116C2105.08 463.961 2108.39 472.903 2108.39 484.944V542.106H2096.35ZM2064.3 542.983C2057.34 542.983 2051.26 541.872 2046.07 539.651C2040.99 537.313 2037.1 534.157 2034.38 530.183C2031.67 526.091 2030.31 521.416 2030.31 516.155C2030.31 511.362 2031.43 507.037 2033.67 503.18C2036.04 499.205 2039.81 496.049 2045.01 493.711C2050.32 491.256 2057.4 490.029 2066.25 490.029H2098.3V499.322H2066.61C2057.64 499.322 2051.38 500.9 2047.84 504.056C2044.42 507.213 2042.7 511.129 2042.7 515.804C2042.7 521.065 2044.77 525.273 2048.9 528.429C2053.03 531.586 2058.82 533.164 2066.25 533.164C2073.33 533.164 2079.41 531.586 2084.49 528.429C2089.68 525.156 2093.46 520.48 2095.82 514.402L2098.65 522.994C2096.29 529.072 2092.16 533.923 2086.26 537.547C2080.47 541.171 2073.16 542.983 2064.3 542.983ZM2059.52 435.672L2083.78 413.929H2100.6L2071.92 435.672H2059.52Z" fill="white"/>
<path d="M2167.5 542.983C2159.82 542.983 2152.57 541.931 2145.72 539.827C2138.87 537.606 2133.5 534.859 2129.61 531.586L2135.27 521.766C2139.05 524.572 2143.89 527.027 2149.79 529.131C2155.69 531.118 2161.89 532.112 2168.38 532.112C2177.23 532.112 2183.61 530.767 2187.5 528.079C2191.4 525.273 2193.35 521.591 2193.35 517.032C2193.35 513.642 2192.22 511.012 2189.98 509.141C2187.86 507.154 2185.02 505.693 2181.48 504.758C2177.94 503.706 2173.99 502.829 2169.62 502.128C2165.25 501.426 2160.89 500.608 2156.52 499.673C2152.27 498.738 2148.37 497.393 2144.83 495.64C2141.29 493.769 2138.4 491.256 2136.16 488.1C2134.03 484.944 2132.97 480.735 2132.97 475.475C2132.97 470.448 2134.39 465.948 2137.22 461.973C2140.05 457.999 2144.18 454.901 2149.61 452.68C2155.16 450.342 2161.89 449.173 2169.8 449.173C2175.82 449.173 2181.84 449.991 2187.86 451.628C2193.88 453.148 2198.83 455.193 2202.73 457.765L2197.24 467.76C2193.11 464.954 2188.68 462.967 2183.96 461.798C2179.24 460.512 2174.52 459.869 2169.8 459.869C2161.42 459.869 2155.22 461.331 2151.21 464.253C2147.31 467.058 2145.37 470.682 2145.37 475.124C2145.37 478.631 2146.43 481.378 2148.55 483.366C2150.79 485.353 2153.69 486.931 2157.23 488.1C2160.89 489.152 2164.84 490.029 2169.09 490.73C2173.46 491.431 2177.76 492.308 2182.01 493.36C2186.38 494.295 2190.34 495.64 2193.88 497.393C2197.54 499.03 2200.43 501.426 2202.55 504.582C2204.79 507.622 2205.92 511.655 2205.92 516.681C2205.92 522.058 2204.38 526.734 2201.31 530.709C2198.36 534.566 2193.99 537.606 2188.21 539.827C2182.55 541.931 2175.64 542.983 2167.5 542.983Z" fill="white"/>
<path d="M2258.37 542.983C2249.64 542.983 2242.91 540.645 2238.19 535.969C2233.47 531.293 2231.11 524.689 2231.11 516.155V429.71H2243.68V515.454C2243.68 520.831 2245.03 524.981 2247.75 527.903C2250.58 530.826 2254.6 532.287 2259.79 532.287C2265.34 532.287 2269.94 530.709 2273.6 527.553L2278.02 536.495C2275.55 538.716 2272.54 540.353 2269 541.405C2265.57 542.457 2262.03 542.983 2258.37 542.983ZM2214.46 460.395V450.05H2272V460.395H2214.46Z" fill="white"/>
<path d="M2300.91 542.106V450.05H2313.48V542.106H2300.91ZM2307.28 429.71C2304.69 429.71 2302.5 428.833 2300.73 427.08C2298.96 425.326 2298.08 423.222 2298.08 420.767C2298.08 418.312 2298.96 416.267 2300.73 414.63C2302.5 412.877 2304.69 412 2307.28 412C2309.88 412 2312.06 412.818 2313.83 414.455C2315.6 416.091 2316.49 418.137 2316.49 420.592C2316.49 423.164 2315.6 425.326 2313.83 427.08C2312.18 428.833 2310 429.71 2307.28 429.71Z" fill="white"/>
<path d="M2387.05 542.983C2377.85 542.983 2369.58 540.996 2362.27 537.021C2355.07 532.93 2349.4 527.377 2345.27 520.363C2341.14 513.233 2339.07 505.108 2339.07 495.99C2339.07 486.756 2341.14 478.631 2345.27 471.617C2349.4 464.604 2355.07 459.109 2362.27 455.135C2369.58 451.16 2377.85 449.173 2387.05 449.173C2394.96 449.173 2402.1 450.693 2408.48 453.732C2414.85 456.772 2419.87 461.331 2423.52 467.409L2414.14 473.722C2410.95 469.046 2407 465.597 2402.28 463.376C2397.56 461.155 2392.42 460.045 2386.88 460.045C2380.27 460.045 2374.3 461.564 2368.99 464.604C2363.68 467.526 2359.49 471.676 2356.42 477.053C2353.35 482.43 2351.82 488.743 2351.82 495.99C2351.82 503.238 2353.35 509.55 2356.42 514.928C2359.49 520.305 2363.68 524.513 2368.99 527.553C2374.3 530.475 2380.27 531.936 2386.88 531.936C2392.42 531.936 2397.56 530.826 2402.28 528.605C2407 526.384 2410.95 522.994 2414.14 518.435L2423.52 524.747C2419.87 530.709 2414.85 535.268 2408.48 538.424C2402.1 541.463 2394.96 542.983 2387.05 542.983Z" fill="white"/>
<path d="M2484.55 542.983C2475.58 542.983 2467.5 540.996 2460.3 537.021C2453.21 532.93 2447.61 527.377 2443.48 520.363C2439.34 513.233 2437.28 505.108 2437.28 495.99C2437.28 486.756 2439.34 478.631 2443.48 471.617C2447.61 464.604 2453.21 459.109 2460.3 455.135C2467.38 451.16 2475.46 449.173 2484.55 449.173C2493.76 449.173 2501.9 451.16 2508.98 455.135C2516.18 459.109 2521.79 464.604 2525.8 471.617C2529.93 478.631 2532 486.756 2532 495.99C2532 505.108 2529.93 513.233 2525.8 520.363C2521.79 527.377 2516.18 532.93 2508.98 537.021C2501.78 540.996 2493.64 542.983 2484.55 542.983ZM2484.55 531.936C2491.28 531.936 2497.24 530.475 2502.43 527.553C2507.63 524.513 2511.7 520.305 2514.65 514.928C2517.72 509.434 2519.25 503.121 2519.25 495.99C2519.25 488.743 2517.72 482.43 2514.65 477.053C2511.7 471.676 2507.63 467.526 2502.43 464.604C2497.24 461.564 2491.34 460.045 2484.73 460.045C2478.12 460.045 2472.22 461.564 2467.02 464.604C2461.83 467.526 2457.7 471.676 2454.63 477.053C2451.56 482.43 2450.03 488.743 2450.03 495.99C2450.03 503.121 2451.56 509.434 2454.63 514.928C2457.7 520.305 2461.83 524.513 2467.02 527.553C2472.22 530.475 2478.06 531.936 2484.55 531.936Z" fill="white"/>
</g>
<g filter="url(#filter2_d_2017_228)">
<rect x="26" y="349" width="2506" height="15" fill="url(#paint1_radial_2017_228)"/>
</g>
<g filter="url(#filter3_d_2017_228)">
<rect x="26" y="480" width="920" height="15" fill="url(#paint2_radial_2017_228)"/>
</g>
<defs>
<filter id="filter0_d_2017_228" x="14" y="41.5" width="2548.21" height="270.1" filterUnits="userSpaceOnUse" color-interpolation-filters="sRGB">
<feFlood flood-opacity="0" result="BackgroundImageFix"/>
<feColorMatrix in="SourceAlpha" type="matrix" values="0 0 0 0 0 0 0 0 0 0 0 0 0 0 0 0 0 0 127 0" result="hardAlpha"/>
<feOffset dx="7" dy="8"/>
<feGaussianBlur stdDeviation="10"/>
<feComposite in2="hardAlpha" operator="out"/>
<feColorMatrix type="matrix" values="0 0 0 0 0 0 0 0 0 0 0 0 0 0 0 0 0 0 0.8 0"/>
<feBlend mode="normal" in2="BackgroundImageFix" result="effect1_dropShadow_2017_228"/>
<feBlend mode="normal" in="SourceGraphic" in2="effect1_dropShadow_2017_228" result="shape"/>
</filter>
<filter id="filter1_d_2017_228" x="978" y="400" width="1581" height="205" filterUnits="userSpaceOnUse" color-interpolation-filters="sRGB">
<feFlood flood-opacity="0" result="BackgroundImageFix"/>
<feColorMatrix in="SourceAlpha" type="matrix" values="0 0 0 0 0 0 0 0 0 0 0 0 0 0 0 0 0 0 127 0" result="hardAlpha"/>
<feOffset dx="7" dy="8"/>
<feGaussianBlur stdDeviation="10"/>
<feComposite in2="hardAlpha" operator="out"/>
<feColorMatrix type="matrix" values="0 0 0 0 0 0 0 0 0 0 0 0 0 0 0 0 0 0 0.8 0"/>
<feBlend mode="normal" in2="BackgroundImageFix" result="effect1_dropShadow_2017_228"/>
<feBlend mode="normal" in="SourceGraphic" in2="effect1_dropShadow_2017_228" result="shape"/>
</filter>
<filter id="filter2_d_2017_228" x="13" y="337" width="2546" height="55" filterUnits="userSpaceOnUse" color-interpolation-filters="sRGB">
<feFlood flood-opacity="0" result="BackgroundImageFix"/>
<feColorMatrix in="SourceAlpha" type="matrix" values="0 0 0 0 0 0 0 0 0 0 0 0 0 0 0 0 0 0 127 0" result="hardAlpha"/>
<feOffset dx="7" dy="8"/>
<feGaussianBlur stdDeviation="10"/>
<feComposite in2="hardAlpha" operator="out"/>
<feColorMatrix type="matrix" values="0 0 0 0 0 0 0 0 0 0 0 0 0 0 0 0 0 0 0.8 0"/>
<feBlend mode="normal" in2="BackgroundImageFix" result="effect1_dropShadow_2017_228"/>
<feBlend mode="normal" in="SourceGraphic" in2="effect1_dropShadow_2017_228" result="shape"/>
</filter>
<filter id="filter3_d_2017_228" x="13" y="468" width="960" height="55" filterUnits="userSpaceOnUse" color-interpolation-filters="sRGB">
<feFlood flood-opacity="0" result="BackgroundImageFix"/>
<feColorMatrix in="SourceAlpha" type="matrix" values="0 0 0 0 0 0 0 0 0 0 0 0 0 0 0 0 0 0 127 0" result="hardAlpha"/>
<feOffset dx="7" dy="8"/>
<feGaussianBlur stdDeviation="10"/>
<feComposite in2="hardAlpha" operator="out"/>
<feColorMatrix type="matrix" values="0 0 0 0 0 0 0 0 0 0 0 0 0 0 0 0 0 0 0.8 0"/>
<feBlend mode="normal" in2="BackgroundImageFix" result="effect1_dropShadow_2017_228"/>
<feBlend mode="normal" in="SourceGraphic" in2="effect1_dropShadow_2017_228" result="shape"/>
</filter>
<linearGradient id="paint0_linear_2017_228" x1="2719.5" y1="327" x2="-142.5" y2="327" gradientUnits="userSpaceOnUse">
<stop offset="0.136638" stop-color="#808080"/>
<stop offset="0.49221" stop-color="#F0F0F0"/>
<stop offset="1" stop-color="#808080"/>
</linearGradient>
<radialGradient id="paint1_radial_2017_228" cx="0" cy="0" r="1" gradientUnits="userSpaceOnUse" gradientTransform="translate(50 544) scale(2441 19342)">
<stop stop-color="#808080"/>
<stop offset="0.5" stop-color="#ECECEC"/>
<stop offset="1" stop-color="#808080"/>
</radialGradient>
<radialGradient id="paint2_radial_2017_228" cx="0" cy="0" r="1" gradientUnits="userSpaceOnUse" gradientTransform="translate(34.8108 675) scale(896.137 19342)">
<stop stop-color="#808080"/>
<stop offset="0.5" stop-color="#ECECEC"/>
<stop offset="1" stop-color="#808080"/>
</radialGradient>
</defs>
</svg>
